<?xml version="1.0" encoding="utf-8"?>
<!-- Generator: Adobe Illustrator 24.0.3, SVG Export Plug-In . SVG Version: 6.00 Build 0)  -->
<svg version="1.1" id="Ebene_1" xmlns="http://www.w3.org/2000/svg" xmlns:xlink="http://www.w3.org/1999/xlink" x="0px" y="0px"
	 viewBox="0 0 390.22 161.52" style="enable-background:new 0 0 390.22 161.52;" xml:space="preserve">
<style type="text/css">
	.st0{fill:#1D1D1B;}
</style>
<g>
	<g>
		<path class="st0" d="M376.25,123.13h4.59v-20.06h7.86v-3.88h-20.35v3.88h7.89V123.13z M348.15,121.55c0,0,2.98,2.01,7.32,2.01
			c4.59,0,8.33-2.58,8.33-6.93c0-7.54-10.62-7.14-10.62-11.48c0-1.54,1.61-2.37,3.66-2.37c2.87,0,5.67,1.22,5.67,1.22l0.75-4.16
			c0,0-3.16-1.08-6.5-1.08c-5.24,0-8.25,3.19-8.25,6.85c0,7.21,10.66,7.07,10.66,11.38c0,1.65-1.76,2.55-3.77,2.55
			c-3.34,0.07-5.92-2.08-5.92-2.08L348.15,121.55z M327.49,123.13h15.36v-3.88h-10.73v-6.35h8.25v-3.84h-8.25v-5.99h10.48v-3.88
			h-15.11V123.13z M295.04,123.3h4.74l4.81-15.9l4.84,15.9h4.7l7.21-24.11h-4.63l-5.02,17.55l-5.2-17.55h-3.66l-5.2,17.55
			l-4.99-17.55h-4.77L295.04,123.3z M266.41,119.25v-16.18h3.37c5.89,0,8.83,3.19,8.83,7.93c0,4.63-2.76,8.25-10.05,8.25H266.41z
			 M261.78,123.13h7.14c8.54,0,14.5-4.31,14.5-12.34c0-8.5-6.67-11.59-13.13-11.59h-8.51V123.13z M241.29,110.24v-7.18h2.58
			c3.55,0,4.74,1.51,4.74,3.48c0,2.26-1.51,3.7-4.7,3.7H241.29z M236.66,123.13h4.63v-9.04h3.41l5.88,9.04h5.45l-6.75-10.19
			c2.4-1.22,4.16-3.52,4.16-6.6c0-3.91-2.66-7.14-8.83-7.14h-7.97V123.13z M208.63,111.07c0-4.31,2.87-8.4,8.18-8.4
			c5.31,0,8.15,4.06,8.15,8.33c0,4.38-3.01,8.65-8.29,8.65C211.33,119.64,208.63,115.16,208.63,111.07 M203.79,111.21
			c0,6.53,4.88,12.35,12.77,12.35c8.07,0,13.21-6.21,13.21-12.85c0-6.53-4.92-11.95-12.88-11.95
			C208.42,98.76,203.79,104.97,203.79,111.21 M176.09,123.13h4.52v-16.76l11.63,16.76h4.7V99.19h-4.52v16.87l-11.66-16.87h-4.66
			V123.13z M159.22,115.41h9.51v-2.87h-9.51V115.41z M132.31,111.07c0-4.31,2.87-8.4,8.18-8.4c5.31,0,8.15,4.06,8.15,8.33
			c0,4.38-3.01,8.65-8.29,8.65C135,119.64,132.31,115.16,132.31,111.07 M127.46,111.21c0,6.53,4.88,12.35,12.77,12.35
			c8.07,0,13.21-6.21,13.21-12.85c0-6.53-4.92-11.95-12.88-11.95C132.09,98.76,127.46,104.97,127.46,111.21 M108.77,110.24v-7.18
			h2.58c3.55,0,4.74,1.51,4.74,3.48c0,2.26-1.51,3.7-4.7,3.7H108.77z M104.14,123.13h4.63v-9.04h3.41l5.88,9.04h5.45l-6.75-10.19
			c2.4-1.22,4.16-3.52,4.16-6.6c0-3.91-2.66-7.14-8.83-7.14h-7.97V123.13z M74.64,111.57c0,7.36,5.81,11.99,13.28,11.99
			c3.59,0,8.72-1.08,8.72-1.08v-12.42h-9.33v3.84h4.81v5.28c0,0-1.97,0.36-3.8,0.36c-5.02,0-8.94-3.09-8.94-8.25
			c0-4.59,3.05-8.51,8.76-8.51c3.77,0,6.57,1.65,6.57,1.65l1.76-3.91c0,0-3.23-1.76-8.15-1.76
			C79.63,98.76,74.64,104.79,74.64,111.57 M59.57,104.86l3.23,9.04h-6.5L59.57,104.86z M48.41,123.13H53l1.94-5.38h9.26l1.94,5.38
			h4.7l-9.01-24.11h-4.41L48.41,123.13z"/>
		<path class="st0" d="M371.23,77.59V58.6h3.8c6.95,0,10.64,3.7,10.64,9.44c0,5.31-3.15,9.55-11.86,9.55H371.23z M368.29,80.06h5.87
			c8.63,0,14.65-4.31,14.65-12.34c0-8.5-6.77-11.59-13.29-11.59h-7.23V80.06z M349.85,80.06h14.4v-2.48h-11.46V56.13h-2.94V80.06z
			 M330.43,80.06h14.04v-2.48h-11.1v-8.5h8.81v-2.48h-8.81v-8h11.14v-2.48h-14.08V80.06z M312.1,80.06h2.94V69.33h8.56v-2.62h-8.56
			V58.6h10.82v-2.48H312.1V80.06z M293.76,67.5v-8.9h2.79c4.37,0,5.91,2.08,5.91,4.34c0,2.98-2.65,4.56-4.94,4.56H293.76z
			 M290.83,80.06h2.94V69.98h3.83l6.84,10.08h3.47l-7.23-10.69c2.36-1.04,4.94-3.23,4.94-6.71c0-3.37-2.36-6.53-8.52-6.53h-6.27
			V80.06z M271.42,80.06h14.04v-2.48h-11.1v-8.5h8.81v-2.48h-8.81v-8h11.14v-2.48h-14.07V80.06z M261.46,80.06h2.94V56.13h-2.94
			V80.06z M245.81,80.06h2.94V58.6h8.59v-2.48h-19.98v2.48h8.45V80.06z M213.51,80.06h2.86V60.83l13.93,19.23h2.94V56.13h-2.87
			v19.52l-13.93-19.52h-2.94V80.06z M194.09,80.06h14.04v-2.48h-11.1v-8.5h8.81v-2.48h-8.81v-8h11.14v-2.48h-14.08V80.06z
			 M162.79,80.06h2.86l0.65-20.6l7.66,20.6h2.22l7.66-20.35l0.75,20.35h2.86l-0.86-23.93h-4.23l-7.31,19.77l-7.2-19.77h-4.23
			L162.79,80.06z M153.23,80.06h2.94V56.13h-2.94V80.06z M134.9,67.5v-8.9h2.79c4.37,0,5.91,2.08,5.91,4.34
			c0,2.98-2.65,4.56-4.94,4.56H134.9z M131.96,80.06h2.94V69.98h3.83l6.84,10.08h3.47l-7.23-10.69c2.36-1.04,4.94-3.23,4.94-6.71
			c0-3.37-2.36-6.53-8.52-6.53h-6.27V80.06z M112.55,80.06h14.04v-2.48h-11.1v-8.5h8.81v-2.48h-8.81v-8h11.14v-2.48h-14.07V80.06z
			 M95.29,68.4v-9.8h3.44c4.37,0,5.91,2.15,5.91,4.84c0,3.09-1.86,4.95-5.91,4.95H95.29z M92.35,80.06h2.94v-9.19h3.97
			c5.01,0,8.52-2.83,8.52-7.68c0-3.8-2.36-7.07-8.52-7.07h-6.91V80.06z M68.53,80.06h3.37l6.3-9.65l6.27,9.65h3.47l-7.99-11.99
			l7.99-11.95h-3.37l-6.3,9.65l-6.27-9.65h-3.47l7.99,12.02L68.53,80.06z M51.74,80.06h14.04v-2.48h-11.1v-8.5h8.81v-2.48h-8.81v-8
			h11.14v-2.48H51.74V80.06z"/>
	</g>
	<g>
		<defs>
			<path id="SVGID_1_" d="M23.8,64.7c-0.43-2.36-1.11-8.56,2.65-12.68c4.4-4.81,9.91-5.09,12.05-4.98c0.59,2.2,1.64,8.17-2.25,13.23
				c-2.95,3.84-7.69,4.51-10.68,4.51C24.87,64.78,24.27,64.75,23.8,64.7 M5.84,60.27C1.98,55.24,3.02,49.25,3.6,47.04
				c2.14-0.11,7.65,0.17,12.04,4.98c3.76,4.11,3.08,10.32,2.65,12.68c-0.46,0.04-1.07,0.08-1.77,0.08
				C13.54,64.78,8.79,64.11,5.84,60.27 M23.8,42.69c-0.44-2.35-1.13-8.54,2.65-12.68c4.4-4.81,9.9-5.09,12.05-4.98
				c0.59,2.2,1.64,8.17-2.25,13.23c-2.95,3.83-7.7,4.51-10.68,4.51C24.87,42.77,24.26,42.73,23.8,42.69 M5.84,38.26
				C1.98,33.23,3.02,27.23,3.6,25.03c2.14-0.11,7.65,0.17,12.04,4.98c3.76,4.12,3.08,10.32,2.65,12.68
				c-0.46,0.04-1.07,0.08-1.77,0.08C13.54,42.77,8.79,42.09,5.84,38.26 M23.8,20.67c-0.43-2.36-1.11-8.57,2.65-12.68
				c4.4-4.81,9.9-5.09,12.04-4.98c0.58,2.21,1.62,8.2-2.24,13.23c-2.95,3.84-7.69,4.51-10.68,4.51
				C24.87,20.75,24.27,20.71,23.8,20.67 M5.84,16.24C1.98,11.21,3.02,5.22,3.6,3.01c2.14-0.11,7.65,0.17,12.04,4.98
				c3.76,4.11,3.08,10.32,2.65,12.68c-0.46,0.04-1.07,0.08-1.77,0.08C13.54,20.75,8.79,20.08,5.84,16.24 M4.2,0
				C3.05,0,2.32,0.11,2.22,0.13C1.69,0.22,1.25,0.58,1.06,1.08C0.98,1.28,0.01,3.92,0,7.5v0.1c0.01,3.12,0.75,6.95,3.47,10.47
				c3.71,4.83,9.38,5.7,12.98,5.7c1.35,0,2.41-0.12,2.96-0.2v6.52c-0.44-0.72-0.94-1.43-1.55-2.1c-6.59-7.21-15.27-5.9-15.64-5.84
				c-0.53,0.09-0.97,0.45-1.16,0.95C0.98,23.3,0.01,25.93,0,29.48v0.16c0.01,3.12,0.76,6.93,3.47,10.44
				c3.71,4.83,9.39,5.7,12.98,5.7c1.35,0,2.41-0.12,2.96-0.2v6.52c-0.44-0.72-0.94-1.43-1.55-2.1c-6.59-7.21-15.27-5.9-15.64-5.84
				c-0.53,0.09-0.97,0.45-1.16,0.95C0.98,45.31,0.01,47.94,0,51.5v0.16c0.01,3.12,0.76,6.92,3.47,10.44
				c3.71,4.83,9.38,5.7,12.98,5.7c1.35,0,2.41-0.12,2.96-0.2v19.64H3.77c-0.83,0-1.5,0.67-1.5,1.5v2.27c0,0.83,0.67,1.5,1.5,1.5
				h15.63v19.27L6.39,118.9c-0.48,0.26-0.78,0.77-0.78,1.32v17.06c-1.41,0.57-2.4,1.96-2.4,3.57c0,2.13,1.73,3.86,3.86,3.86
				s3.86-1.73,3.86-3.86c0-1.58-0.95-2.94-2.31-3.53v-16.21l10.79-5.9v38.9c-1.38,0.59-2.36,1.96-2.36,3.55
				c0,2.13,1.73,3.86,3.86,3.86s3.86-1.73,3.86-3.86c0-1.6-0.98-2.98-2.36-3.56v-23.74l10.19,3.71v9.78
				c-1.28,0.63-2.17,1.93-2.17,3.46c0,2.13,1.73,3.86,3.86,3.86s3.86-1.73,3.86-3.86c0-1.67-1.06-3.08-2.55-3.62v-10.67
				c0-0.63-0.4-1.19-0.99-1.41l-12.2-4.44V92.51h366.31c0.83,0,1.5-0.67,1.5-1.5v-2.27c0-0.83-0.67-1.5-1.5-1.5H22.41V67.55
				c0.39,0.07,1.6,0.25,3.25,0.25c3.6,0,9.27-0.87,12.98-5.7c5.85-7.61,2.56-16.61,2.41-16.99c-0.19-0.5-0.63-0.86-1.16-0.95
				c-0.36-0.06-9.05-1.37-15.64,5.84c-0.74,0.81-1.35,1.68-1.84,2.57v-7.03c0.39,0.07,1.6,0.25,3.25,0.25c3.6,0,9.27-0.87,12.98-5.7
				c5.85-7.61,2.56-16.61,2.41-16.99c-0.19-0.5-0.63-0.86-1.16-0.95c-0.36-0.06-9.05-1.37-15.64,5.84
				c-0.74,0.81-1.35,1.68-1.84,2.57v-7.03c0.39,0.07,1.6,0.25,3.25,0.25c3.6,0,9.27-0.87,12.98-5.7c5.85-7.61,2.56-16.61,2.41-16.99
				c-0.19-0.5-0.63-0.87-1.16-0.95c-0.36-0.06-9.05-1.37-15.64,5.83c-1.23,1.35-2.07,2.84-2.65,4.36c-0.21-0.11-0.43-0.18-0.68-0.18
				c-0.15,0-0.29,0.04-0.43,0.09c-0.58-1.49-1.41-2.95-2.62-4.27C13.13,0.8,7.32,0.01,4.28,0H4.2z"/>
		</defs>
		<linearGradient id="SVGID_2_" gradientUnits="userSpaceOnUse" x1="0" y1="80.758" x2="390.218" y2="80.758">
			<stop  offset="2.900131e-04" style="stop-color:#8EBE21"/>
			<stop  offset="0.9994" style="stop-color:#E8CD00"/>
		</linearGradient>
		<use xlink:href="#SVGID_1_"  style="overflow:visible;fill:url(#SVGID_2_);"/>
		<clipPath id="SVGID_3_">
			<use xlink:href="#SVGID_1_"  style="overflow:visible;"/>
		</clipPath>
	</g>
</g>
</svg>
